<svg xmlns="http://www.w3.org/2000/svg">
    <symbol viewBox="0 0 12 10" id="explorer-market">
        <path d="M1 5a5 5 0 1 0 10 0A5 5 0 0 0 1 5zm6.969.751c.802-.207 1.491-.535 2.011-.947.003.066.02.128.02.196 0 1.75-1.131 3.221-2.697 3.764.351-.76.593-1.811.666-3.013zm-5.95-.942c.519.411 1.212.734 2.011.94.073 1.203.315 2.254.667 3.015C3.131 8.221 2 6.75 2 5c0-.066.016-.126.019-.191zm1.993-.104c-.817-.252-1.438-.637-1.759-1.065a3.985 3.985 0 0 1 2.444-2.405c-.395.856-.652 2.081-.685 3.47zm.991.219c.008-1.194.196-2.3.511-3.089C5.751 1.242 5.981 1 6 1c.019 0 .248.242.485.835.316.789.504 1.895.512 3.089A7.074 7.074 0 0 1 6 5c-.349 0-.679-.031-.997-.076zm.511 3.24c-.238-.595-.403-1.37-.474-2.226.312.036.63.062.96.062.33 0 .648-.026.96-.063-.071.857-.237 1.632-.475 2.227C6.248 8.757 6.019 9 6 9c-.019 0-.249-.243-.486-.836zm2.474-3.459c-.033-1.389-.29-2.614-.685-3.47A3.987 3.987 0 0 1 9.747 3.64c-.321.428-.942.813-1.759 1.065z"></path>
    </symbol>
</svg>